HIERARCHY
ROOT Hips
{
	OFFSET 52.563301 16.275990 56.061104
	CHANNELS 6 Xposition Yposition Zposition Xrotation Yrotation Zrotation
	JOINT spine
	{
		OFFSET 0.000000 -0.458068 7.965675
		CHANNELS 3 Xrotation Yrotation Zrotation
		JOINT spine1
		{
			OFFSET 0.000000 -0.000002 10.243103
			CHANNELS 3 Xrotation Yrotation Zrotation
			JOINT spine2
			{
				OFFSET 0.000000 -0.000001 9.814751
				CHANNELS 3 Xrotation Yrotation Zrotation
				JOINT Neck
				{
					OFFSET 0.000000 -1.201385 25.198601
					CHANNELS 3 Xrotation Yrotation Zrotation
					JOINT Head
					{
						OFFSET 0.000000 -0.000001 7.613152
						CHANNELS 3 Xrotation Yrotation Zrotation
						End Site
						{
							OFFSET 0.000000 6.077326 18.428108
						}
					}
				}
				JOINT RightShoulder
				{
					OFFSET -4.132698 0.575449 10.599197
					CHANNELS 3 Xrotation Yrotation Zrotation
					JOINT RightArm
					{
						OFFSET 0.000000 -0.000002 13.901802
						CHANNELS 3 Xrotation Yrotation Zrotation
						JOINT RightArmRoll
						{
							OFFSET 0.000000 -0.000002 7.017883
							CHANNELS 3 Xrotation Yrotation Zrotation
							JOINT RightForeArm
							{
								OFFSET 0.000000 -0.000004 20.440598
								CHANNELS 3 Xrotation Yrotation Zrotation
								JOINT RightForeArmRoll
								{
									OFFSET 0.000000 0.000000 7.875168
									CHANNELS 3 Xrotation Yrotation Zrotation
									JOINT RightHand
									{
										OFFSET 0.000000 -0.000004 15.803696
										CHANNELS 3 Xrotation Yrotation Zrotation
										End Site
										{
											OFFSET 0.000000 0.000000 0.100006
										}
									}
								}
							}
						}
					}
				}
				JOINT LeftShoulder
				{
					OFFSET 4.132698 0.575449 10.599197
					CHANNELS 3 Xrotation Yrotation Zrotation
					JOINT LeftArm
					{
						OFFSET 0.000000 -0.000002 13.901802
						CHANNELS 3 Xrotation Yrotation Zrotation
						JOINT LeftArmRoll
						{
							OFFSET 0.000000 -0.000002 7.017891
							CHANNELS 3 Xrotation Yrotation Zrotation
							JOINT LeftForeArm
							{
								OFFSET 0.000000 -0.000004 20.440605
								CHANNELS 3 Xrotation Yrotation Zrotation
								JOINT LeftForeArmRoll
								{
									OFFSET 0.000000 0.000000 7.875153
									CHANNELS 3 Xrotation Yrotation Zrotation
									JOINT LeftHand
									{
										OFFSET 0.000000 -0.000004 15.803696
										CHANNELS 3 Xrotation Yrotation Zrotation
										End Site
										{
											OFFSET 0.000000 0.000000 0.100006
										}
									}
								}
							}
						}
					}
				}
			}
		}
	}
	JOINT RightUpLeg
	{
		OFFSET -7.060478 1.086100 -1.294701
		CHANNELS 3 Xrotation Yrotation Zrotation
		JOINT RightUpLegRoll
		{
			OFFSET 0.000000 -0.000002 18.530792
			CHANNELS 3 Xrotation Yrotation Zrotation
			JOINT RightLeg
			{
				OFFSET 0.000000 0.000004 -22.947598
				CHANNELS 3 Xrotation Yrotation Zrotation
				JOINT RightLegRoll
				{
					OFFSET 0.000000 -0.000004 23.022594
					CHANNELS 3 Xrotation Yrotation Zrotation
					JOINT RightFoot
					{
						OFFSET 0.000000 -0.000004 19.162498
						CHANNELS 3 Xrotation Yrotation Zrotation
						JOINT RightToeBase
						{
							OFFSET 0.000000 -0.000002 16.018799
							CHANNELS 3 Xrotation Yrotation Zrotation
							End Site
							{
								OFFSET 0.006790 0.894203 7.757820
							}
						}
					}
				}
			}
		}
	}
	JOINT LeftUpLeg
	{
		OFFSET 7.060478 1.086100 -1.294701
		CHANNELS 3 Xrotation Yrotation Zrotation
		JOINT LeftUpLegRoll
		{
			OFFSET 0.000000 -0.000002 18.530899
			CHANNELS 3 Xrotation Yrotation Zrotation
			JOINT LeftLeg
			{
				OFFSET 0.000000 -0.000004 22.947502
				CHANNELS 3 Xrotation Yrotation Zrotation
				JOINT LeftLegRoll
				{
					OFFSET 0.000000 -0.000004 23.235497
					CHANNELS 3 Xrotation Yrotation Zrotation
					JOINT LeftFoot
					{
						OFFSET 0.000000 -0.000004 18.949600
						CHANNELS 3 Xrotation Yrotation Zrotation
						JOINT LeftToeBase
						{
							OFFSET 0.000000 -0.000002 16.018799
							CHANNELS 3 Xrotation Yrotation Zrotation
							End Site
							{
								OFFSET -0.030430 0.894203 7.757812
							}
						}
					}
				}
			}
		}
	}
}
MOTION
Frames: 13
Frame Time: 0.041667
53.882504 -30.022625 95.791092 -1.080076 0.893076 3.693167 -2.128785 -0.282732 0.095887 -0.254336 -0.577283 0.170076 1.390771 -0.575204 0.176978 21.853510 1.265327 -2.168361 -4.571095 -3.118509 -1.930562 3.909495 -71.222358 2.823230 -50.096548 -115.137018 -27.110742 0.000003 -0.000006 0.000004 0.022477 -2.327970 -0.209071 0.000000 0.000006 -3.043171 -5.000171 -7.999832 0.000029 2.513060 71.410051 -1.268128 -44.655408 115.839530 27.934815 -0.000000 -0.000000 -0.000000 0.048617 6.782289 0.351382 -0.000001 0.000029 3.056990 -5.000203 7.999144 -0.000106 0.695377 -177.807159 -3.851031 -179.999991 0.000005 -1.115993 175.122471 -1.363048 -0.611312 -0.000000 -0.000001 0.072247 69.397714 6.946453 1.963226 25.456953 -7.355615 -0.000001 -1.326063 175.242259 1.207176 -0.000020 -0.000005 -1.111690 -7.352755 2.110488 0.373959 0.000001 -0.000001 -0.132726 70.215745 -6.919340 -1.980164 25.456953 7.355611 0.000002 
53.884903 -30.017109 95.791191 -1.069714 0.889975 3.695537 -2.128787 -0.281824 0.094331 -0.254339 -0.574874 0.167990 1.390770 -0.572820 0.174863 21.854114 1.266417 -2.170754 -4.587610 -3.125714 -1.932853 3.909785 -71.229058 2.822701 -50.114420 -115.139668 -27.136121 0.000002 -0.000005 0.000004 0.022476 -2.334200 -0.209072 -0.000001 0.000007 -3.043171 -5.000171 -7.999830 0.000031 2.506788 71.402524 -1.262237 -44.647806 115.842945 27.938334 0.000001 -0.000000 0.000000 0.048614 6.791270 0.349408 -0.000002 0.000029 3.057019 -5.000206 7.999144 -0.000106 0.670219 -177.804154 -3.850268 -179.999991 0.000005 -1.115992 175.112499 -1.364021 -0.612630 0.000000 -0.000001 0.072205 69.394312 6.946412 1.963332 25.456952 -7.355615 -0.000001 -1.354326 175.250319 1.217072 -0.000020 -0.000005 -1.111710 -7.366746 2.106315 0.374413 0.000001 -0.000001 -0.132819 70.211285 -6.919354 -1.980146 25.456952 7.355612 0.000001 
53.892704 -30.003216 95.789993 -1.059657 0.887078 3.697846 -2.128776 -0.280965 0.092748 -0.254321 -0.572546 0.165886 1.390779 -0.570516 0.172732 21.855227 1.267652 -2.173136 -4.604680 -3.133124 -1.935136 3.910314 -71.235861 2.822419 -50.131983 -115.142168 -27.161330 0.000003 -0.000006 0.000004 0.022479 -2.340700 -0.209077 0.000001 0.000006 -3.043172 -5.000169 -7.999832 0.000030 2.500174 71.394909 -1.255969 -44.640037 115.846306 27.941822 -0.000001 -0.000000 0.000001 0.048616 6.800439 0.347489 -0.000002 0.000030 3.057068 -5.000205 7.999144 -0.000106 0.645943 -177.801135 -3.849394 -179.999991 0.000005 -1.114996 175.103524 -1.366003 -0.613015 -0.000000 -0.000001 0.072141 69.390405 6.946455 1.963185 25.456953 -7.355614 -0.000001 -1.381894 175.258365 1.226553 -0.000020 -0.000005 -1.111760 -7.380315 2.102343 0.374848 0.000001 -0.000001 -0.132921 70.206920 -6.919337 -1.980114 25.456952 7.355612 0.000002 
53.874702 -29.993813 95.786491 -1.049804 0.884327 3.700094 -2.128758 -0.280140 0.091148 -0.254289 -0.570274 0.163771 1.390819 -0.568270 0.170589 21.856742 1.268993 -2.175533 -4.622141 -3.140693 -1.937417 3.910965 -71.242664 2.822266 -50.151012 -115.143957 -27.188391 0.000002 -0.000005 0.000004 0.022477 -2.347380 -0.209086 0.000002 0.000007 -3.043172 -5.000172 -7.999830 0.000031 2.493315 71.387184 -1.249454 -44.631933 115.849530 27.945092 0.000002 -0.000000 0.000000 0.048618 6.809749 0.345613 -0.000003 0.000029 3.057132 -5.000203 7.999144 -0.000106 0.622282 -177.798130 -3.848449 -179.999991 0.000005 -1.114997 175.095219 -1.367973 -0.613384 0.000000 -0.000001 0.072062 69.386280 6.946451 1.963243 25.456953 -7.355614 -0.000001 -1.408970 175.266424 1.235714 -0.000020 -0.000004 -1.111819 -7.393576 2.098492 0.375267 0.000001 -0.000001 -0.133029 70.202460 -6.919351 -1.980093 25.456953 7.355612 0.000002 
53.877502 -29.984711 95.814491 -1.040083 0.881659 3.702315 -2.128727 -0.279336 0.089536 -0.254247 -0.568034 0.161650 1.390858 -0.566054 0.168441 21.858552 1.270397 -2.177924 -4.639818 -3.148350 -1.939693 3.911730 -71.249562 2.822230 -50.168252 -115.146321 -27.213490 0.000002 -0.000006 0.000003 0.022479 -2.354181 -0.209096 0.000002 0.000006 -3.043172 -5.000171 -7.999829 0.000030 2.486315 71.379377 -1.242780 -44.622377 115.853464 27.946752 0.000001 -0.000000 0.000000 0.048616 6.819150 0.343767 0.000000 0.000030 3.057208 -5.000206 7.999145 -0.000106 0.598979 -177.795111 -3.847462 -179.999991 0.000005 -1.114996 175.087296 -1.369945 -0.613744 0.000000 -0.000001 0.071974 69.381943 6.946439 1.963212 25.456955 -7.355616 -0.000001 -1.435769 175.273487 1.244721 -0.000020 -0.000004 -1.111900 -7.406656 2.094731 0.375679 0.000001 -0.000001 -0.133141 70.198102 -6.919330 -1.979962 25.456952 7.355613 0.000003 
53.892700 -29.980614 95.811295 -1.030391 0.879014 3.704529 -2.128706 -0.278538 0.087923 -0.254203 -0.565803 0.159526 1.390898 -0.563849 0.166291 21.860362 1.271820 -2.180320 -4.657563 -3.156025 -1.941978 3.912529 -71.256461 2.822228 -50.185457 -115.148698 -27.238581 0.000005 -0.000006 0.000004 0.022477 -2.361010 -0.209105 0.000002 0.000006 -3.043170 -5.000171 -7.999830 0.000030 2.479294 71.371666 -1.236089 -44.614109 115.856633 27.949885 0.000001 0.000001 0.000002 0.048619 6.828570 0.341920 -0.000001 0.000029 3.057288 -5.000206 7.999144 -0.000105 0.575777 -177.792105 -3.846456 -179.999991 0.000005 -1.114997 175.079509 -1.370935 -0.614018 0.000000 -0.000001 0.071885 69.377606 6.946459 1.963189 25.456950 -7.355614 -0.000001 -1.462484 175.280549 1.253674 -0.000020 -0.000004 -1.111980 -7.419689 2.090980 0.376085 0.000001 -0.000001 -0.133253 70.193752 -6.919342 -1.979834 25.456953 7.355613 0.000002 
53.869305 -29.959316 95.785294 -1.020647 0.876332 3.706762 -2.128675 -0.277729 0.086313 -0.254164 -0.563558 0.157404 1.390937 -0.561629 0.164143 21.862081 1.273216 -2.182714 -4.675202 -3.163671 -1.944270 3.913263 -71.263352 2.822164 -50.202690 -115.151061 -27.263672 0.000004 -0.000005 0.000003 0.022478 -2.367790 -0.209116 0.000002 0.000007 -3.043171 -5.000171 -7.999830 0.000029 2.472329 71.363845 -1.229460 -44.606009 115.859857 27.953157 0.000002 0.000000 -0.000001 0.048617 6.837950 0.340066 -0.000000 0.000029 3.057359 -5.000204 7.999143 -0.000106 0.552409 -177.789114 -3.845476 -179.999991 0.000005 -1.113999 175.071532 -1.372906 -0.614379 -0.000000 -0.000001 0.071798 69.373378 6.946452 1.963152 25.456950 -7.355613 -0.000001 -1.489327 175.288582 1.262686 -0.000020 -0.000004 -1.112060 -7.432811 2.087199 0.376494 0.000001 -0.000001 -0.133364 70.189298 -6.919353 -1.979815 25.456953 7.355613 0.000001 
53.878002 -29.953709 95.793991 -1.010756 0.873553 3.709031 -2.128667 -0.276897 0.084717 -0.254134 -0.561275 0.155292 1.390966 -0.559369 0.162004 21.863492 1.274539 -2.185112 -4.692585 -3.171197 -1.946572 3.913884 -71.270162 2.821980 -50.221708 -115.152864 -27.290630 0.000004 -0.000006 0.000004 0.022477 -2.374439 -0.209123 0.000004 0.000007 -3.043171 -5.000173 -7.999830 0.000029 2.465560 71.356236 -1.223027 -44.598075 115.863149 27.956499 -0.000001 0.000000 0.000001 0.048620 6.847230 0.338187 -0.000004 0.000029 3.057419 -5.000206 7.999143 -0.000105 0.528617 -177.786095 -3.844568 -179.999991 0.000005 -1.113998 175.063103 -1.374876 -0.615750 0.000000 -0.000001 0.071722 69.369245 6.946447 1.963110 25.456952 -7.355613 -0.000001 -1.516506 175.295644 1.271913 -0.000019 -0.000004 -1.112120 -7.446130 2.083328 0.376910 0.000000 -0.000001 -0.133471 70.184941 -6.919331 -1.979781 25.456953 7.355612 0.000002 
53.888504 -29.935120 95.814095 -1.000623 0.870615 3.711355 -2.128657 -0.276027 0.083141 -0.254121 -0.558927 0.153193 1.390976 -0.557048 0.159876 21.864501 1.275737 -2.187499 -4.709532 -3.178554 -1.948882 3.914385 -71.276958 2.821663 -50.239241 -115.155391 -27.315810 0.000004 -0.000006 0.000004 0.022482 -2.380880 -0.209127 0.000000 0.000007 -3.043170 -5.000171 -7.999831 0.000029 2.459052 71.348614 -1.216881 -44.590146 115.866441 27.959929 0.000000 -0.000001 -0.000001 0.048617 6.856361 0.336254 -0.000002 0.000030 3.057469 -5.000207 7.999144 -0.000106 0.504140 -177.782079 -3.843727 -179.999991 0.000005 -1.113999 175.053869 -1.376857 -0.616145 0.000000 -0.000001 0.071663 69.365543 6.946424 1.963138 25.456950 -7.355616 -0.000001 -1.544230 175.303690 1.281433 -0.000020 -0.000004 -1.112160 -7.459790 2.079306 0.377337 0.000001 -0.000001 -0.133571 70.180474 -6.919341 -1.979761 25.456953 7.355614 0.000001 
53.892506 -29.933220 95.811783 -0.990169 0.867460 3.713772 -2.128654 -0.275105 0.081593 -0.254130 -0.556495 0.151111 1.390965 -0.554640 0.157765 21.864916 1.276782 -2.189888 -4.725890 -3.185675 -1.951203 3.914597 -71.283570 2.821054 -50.257239 -115.158137 -27.341307 0.000006 -0.000006 0.000003 0.022478 -2.387020 -0.209127 -0.000000 0.000006 -3.043170 -5.000172 -7.999832 0.000030 2.452923 71.341094 -1.211128 -44.582735 115.869952 27.963631 0.000001 -0.000000 0.000001 0.048619 6.865270 0.334260 -0.000001 0.000028 3.057489 -5.000204 7.999144 -0.000104 0.478721 -177.779087 -3.843028 -179.999991 0.000005 -1.113998 175.043610 -1.377829 -0.616477 0.000000 -0.000001 0.071627 69.362156 6.946451 1.963157 25.456952 -7.355615 -0.000001 -1.572694 175.312760 1.291387 -0.000020 -0.000004 -1.112170 -7.473921 2.075074 0.377781 0.000001 -0.000001 -0.133662 70.176020 -6.919350 -1.979741 25.456950 7.355613 0.000002 
53.894905 -29.929012 95.792496 -0.979293 0.864025 3.716288 -2.128667 -0.274116 0.080081 -0.254169 -0.553953 0.149054 1.390925 -0.552122 0.155676 21.864615 1.277620 -2.192267 -4.741494 -3.192500 -1.953550 3.914536 -71.290079 2.820161 -50.275571 -115.161033 -27.366901 0.000005 -0.000006 0.000003 0.022477 -2.392789 -0.209120 0.000001 0.000007 -3.043170 -5.000173 -7.999830 0.000029 2.447281 71.333751 -1.205899 -44.575662 115.873572 27.967528 0.000001 0.000000 -0.000001 0.048618 6.873910 0.332181 -0.000004 0.000029 3.057490 -5.000204 7.999143 -0.000105 0.452094 -177.775071 -3.842476 -179.999991 0.000005 -1.113001 175.031999 -1.378799 -0.616842 -0.000000 -0.000001 0.071621 69.359410 6.946433 1.963125 25.456957 -7.355613 -0.000001 -1.602127 175.320820 1.301930 -0.000020 -0.000004 -1.112150 -7.488628 2.070593 0.378247 0.000000 -0.000001 -0.133742 70.171554 -6.919359 -1.979619 25.456955 7.355611 0.000003 
53.885700 -29.908714 95.795792 -0.967909 0.860250 3.718933 -2.128705 -0.273045 0.078612 -0.254242 -0.551277 0.147022 1.390854 -0.549470 0.153613 21.863427 1.278206 -2.194651 -4.756189 -3.198950 -1.955911 3.914083 -71.296499 2.818864 -50.294364 -115.164147 -27.392714 0.000005 -0.000006 0.000004 0.022481 -2.398111 -0.209109 -0.000000 0.000007 -3.043172 -5.000172 -7.999830 0.000030 2.442226 71.326614 -1.201283 -44.569119 115.877397 27.971911 0.000000 -0.000000 -0.000002 0.048618 6.882211 0.330002 -0.000002 0.000029 3.057440 -5.000205 7.999142 -0.000105 0.424004 -177.771055 -3.842128 -179.999991 0.000005 -1.113000 175.018803 -1.378771 -0.618157 0.000000 -0.000001 0.071651 69.357286 6.946447 1.963060 25.456953 -7.355613 -0.000001 -1.632713 175.330888 1.313131 -0.000019 -0.000004 -1.112070 -7.504055 2.065791 0.378739 0.000001 -0.000001 -0.133809 70.167087 -6.919332 -1.979695 25.456957 7.355613 0.000002 
53.880104 -29.895813 95.817291 -0.955929 0.856076 3.721734 -2.128752 -0.271879 0.077194 -0.254356 -0.548445 0.145026 1.390744 -0.546661 0.151582 21.861125 1.278505 -2.197032 -4.769812 -3.204975 -1.958288 3.913199 -71.302626 2.817113 -50.313953 -115.167631 -27.418963 0.000002 -0.000005 0.000003 0.022478 -2.402900 -0.209087 0.000001 0.000007 -3.043170 -5.000174 -7.999829 0.000030 2.437855 71.319667 -1.197398 -44.563088 115.881427 27.976550 0.000000 -0.000000 0.000001 0.048616 6.890119 0.327706 -0.000002 0.000029 3.057359 -5.000205 7.999144 -0.000105 0.394187 -177.767052 -3.842000 -179.999991 0.000005 -1.113001 175.003640 -1.378739 -0.618522 -0.000000 -0.000001 0.071722 69.356015 6.946426 1.963136 25.456950 -7.355615 -0.000001 -1.664663 175.340969 1.325152 -0.000020 -0.000004 -1.111950 -7.520331 2.060617 0.379262 0.000001 -0.000001 -0.133859 70.162531 -6.919337 -1.979778 25.456953 7.355613 0.000002 
